<?xml version="1.0" encoding="UTF-8"?>
<svg id="Layer_1" data-name="Layer 1" xmlns="http://www.w3.org/2000/svg" viewBox="0 0 358 201">
  <defs>
    <style>
      .cls-1 {
        fill-rule: evenodd;
      }

      .cls-1, .cls-2 {
        fill: #ffc746;
      }
    </style>
  </defs>
  <g>
    <path class="cls-2" d="M129.49,110.94c-2.19,0-5.1-.18-7.38-.27v22.15c0,1-.82,1.82-1.82,1.82h-11.76c-1,0-1.82-.73-1.82-1.73v-61.25c0-3.1,1.28-3.92,4.1-4.38,4.65-.73,11.94-1.19,18.5-1.19,13.76,0,27.35,4.83,27.35,21.97v.82c0,17.05-13.58,22.06-27.16,22.06Zm11.67-22.88c0-6.47-4.01-9.02-11.67-9.02-1.28,0-6.29,.18-7.38,.27v18.6c1,.09,6.38,.18,7.38,.18,8.11,0,11.67-3.01,11.67-9.21v-.82Z"/>
    <path class="cls-2" d="M252.84,135.46c-7.2,0-12.58-.82-17.23-2.01-.91-.27-1.82-.82-1.82-1.82v-8.93c0-1.28,.73-1.73,1.64-1.73h.27c3.74,.36,13.76,1.09,17.32,1.09,6.29,0,8.11-2.01,8.11-6.38,0-2.64-1.28-4.1-6.02-6.93l-12.58-7.47c-8.48-5.01-10.76-10.76-10.76-17.41,0-10.03,5.65-17.77,23.33-17.77,6.65,0,15.86,1.09,19.32,2.01,.73,.18,1.37,.64,1.37,1.64v9.21c0,.82-.36,1.55-1.55,1.55h-.18c-2.55-.18-13.13-1-19.32-1-5.2,0-7.11,1.55-7.11,4.83,0,2.55,1.18,3.74,6.11,6.38l11.67,6.29c9.48,5.1,12.31,11.12,12.31,18.5,0,9.66-6.38,19.96-24.88,19.96Z"/>
    <path class="cls-2" d="M310.72,110.94c-2.19,0-5.1-.18-7.38-.27v22.15c0,1-.82,1.82-1.82,1.82h-11.76c-1,0-1.82-.73-1.82-1.73v-61.25c0-3.1,1.28-3.92,4.1-4.38,4.65-.73,11.94-1.19,18.5-1.19,13.76,0,27.35,4.83,27.35,21.97v.82c0,17.05-13.58,22.06-27.16,22.06Zm11.67-22.88c0-6.47-4.01-9.02-11.67-9.02-1.28,0-6.29,.18-7.38,.27v18.6c1,.09,6.38,.18,7.38,.18,8.11,0,11.67-3.01,11.67-9.21v-.82Z"/>
  </g>
  <path class="cls-1" d="M33.8,118.18c6.36,.02,19.44,1.33,26.84,8.9v5.34c-8.08-8.46-22.27-9.91-29.26-9.93-1.66,0-3.84-1.35-3.84-3v-45.04c0-1.02,2.34-2.87,3.5-2.99v43.96c0,1.51,1.24,2.75,2.76,2.75h0Z"/>
  <g>
    <path class="cls-1" d="M90.44,113.19v-41.3c0-.74-.29-1.43-.81-1.96-.52-.52-1.2-.8-1.93-.8h0c-6.42,.02-18.11,1.5-24.19,11.3-.25,.4-.38,.88-.38,1.39v43.22c7.41-7.75,18.15-9.09,24.56-9.1,1.52,0,2.76-1.24,2.76-2.75h0Z"/>
    <path class="cls-1" d="M33.32,113.19v-41.3c0-.74,.29-1.43,.81-1.96,.52-.52,1.2-.8,1.93-.8h0c6.42,.02,18.11,1.5,24.19,11.3,.25,.4,.38,.88,.38,1.39v43.22c-7.41-7.75-18.15-9.09-24.56-9.1-1.52,0-2.76-1.24-2.76-2.75h0Z"/>
  </g>
  <path class="cls-1" d="M89.96,118.18c-6.36,.02-19.44,1.33-26.85,8.9v5.34c8.08-8.46,22.27-9.91,29.27-9.93,1.66,0,3.83-1.35,3.83-3v-45.04c0-1.02-2.34-2.87-3.5-2.99v43.96c0,1.51-1.24,2.75-2.76,2.75h0Z"/>
  <path class="cls-2" d="M224.41,132.55l-13.76-25.7c6.65-2.64,11.76-8.57,11.76-18.23v-1.19c0-13.82-8.76-19.61-21.02-20.99-.08-.17-.16-.35-.24-.53l-3.37,.24c-.92-.04-1.86-.06-2.81-.06-2.9,0-6.03,.11-8.98,.28-1.35-2.35-2.84-4.61-4.46-6.76l6.89-13.11c-4.35-4.95-9.3-9.37-14.7-13.16l-12.28,8.32c-2.52-1.48-5.13-2.81-7.84-3.98l-.58-14.8c-6.17-2.1-12.65-3.46-19.32-4.04l-6.46,13.34c-2.16-.02-4.32,.07-6.52,.25-.76,.07-1.51,.16-2.25,.25l-7.91-12.55c-6.59,1.32-12.88,3.39-18.76,6.14l1.08,14.81c-2.56,1.45-5.03,3.06-7.36,4.82l-13.12-6.9c-4.96,4.36-9.38,9.3-13.15,14.72l6.36,9.37h30.82c8.29-6.67,18.8-10.67,30.24-10.67,21.15,0,39.16,13.66,45.7,32.62v31.42c-6.54,18.96-24.55,32.62-45.7,32.62-12.06,0-23.09-4.45-31.57-11.77h-26.45c.99,1.57,2.04,3.11,3.15,4.59l-6.9,13.11c4.35,4.97,9.31,9.38,14.71,13.16l12.27-8.32c2.52,1.5,5.14,2.83,7.84,3.99l.58,14.8c6.17,2.09,12.64,3.46,19.31,4.03l6.47-13.34c2.15,.01,4.33-.06,6.52-.25,.75-.06,1.5-.16,2.23-.26l7.92,12.56c6.6-1.32,12.88-3.38,18.76-6.14l-1.07-14.81c2.55-1.46,5.01-3.06,7.36-4.82l13.11,6.89c4.95-4.36,9.37-9.3,13.15-14.71l-8.32-12.27c.18-.31,.36-.63,.54-.95,.87-.13,1.55-.89,1.55-1.8v-1.08c.08-.54,.15-1.07,.23-1.61v-20.11h7.47c2.99,5.71,5.99,11.41,8.98,17.12,1,1.89,2.01,3.79,3.01,5.68,.46,.91,.82,1.82,1.82,1.82h13.95c1,0,1.37-.46,1.37-1.09,0-.27-.09-.64-.27-1Zm-17.5-43.93c0,6.02-2.84,8.51-11.76,8.65-.43,.04-.87,.08-1.32,.12-2.24,.16-4.36,.14-6.32,0,.19-5.94,.38-11.88,.57-17.81,1.74-.28,14.01-2.09,17.81,4.02,.28,.45,.52,.94,.7,1.5,.09,.32,.17,.7,.31,2.33v1.19Z"/>
</svg>