<?xml version="1.0" encoding="UTF-8"?>
<svg id="Layer_1" data-name="Layer 1" xmlns="http://www.w3.org/2000/svg" xmlns:xlink="http://www.w3.org/1999/xlink" viewBox="0 0 500 201">
  <defs>
    <style>
      .cls-1, .cls-2, .cls-3 {
        fill-rule: evenodd;
      }

      .cls-1, .cls-4 {
        fill: #ffc746;
      }

      .cls-2 {
        fill: url(#linear-gradient-2);
      }

      .cls-3 {
        fill: url(#linear-gradient);
      }

      .cls-5 {
        fill: #231f20;
      }
    </style>
    <linearGradient id="linear-gradient" x1="151.74" y1="96.08" x2="190.74" y2="96.08" gradientUnits="userSpaceOnUse">
      <stop offset=".28" stop-color="#af1f24"/>
      <stop offset="1" stop-color="#cd2031"/>
    </linearGradient>
    <linearGradient id="linear-gradient-2" x1="109.2" x2="148.2" xlink:href="#linear-gradient"/>
  </defs>
  <path class="cls-3" d="M190.74,119.06V60.11c0-1.06-.41-2.05-1.16-2.79-.74-.74-1.71-1.14-2.75-1.14h-.01c-9.17,.02-25.85,2.15-34.54,16.13-.35,.57-.54,1.26-.54,1.99v61.7c10.58-11.07,25.91-12.98,35.06-13,2.17,0,3.94-1.77,3.94-3.93h0Z"/>
  <path class="cls-1" d="M109.88,126.18c9.07,.02,27.76,1.9,38.32,12.71v7.63c-11.53-12.07-31.8-14.15-41.78-14.18-2.37,0-5.48-1.93-5.48-4.29V63.75c0-1.46,3.35-4.09,4.99-4.26v62.76c0,2.16,1.77,3.92,3.94,3.93h0Z"/>
  <path class="cls-2" d="M109.2,119.06V60.11c0-1.06,.41-2.05,1.16-2.79,.74-.74,1.72-1.14,2.75-1.14h.01c9.17,.02,25.85,2.15,34.54,16.13,.35,.57,.54,1.26,.54,1.99v61.7c-10.58-11.07-25.91-12.98-35.06-13-2.17,0-3.94-1.77-3.94-3.93h0Z"/>
  <path class="cls-1" d="M190.07,126.18c-9.08,.02-27.76,1.9-38.33,12.71v7.63c11.54-12.07,31.8-14.15,41.78-14.18,2.37,0,5.47-1.93,5.47-4.29V63.75c0-1.46-3.34-4.09-4.99-4.26v62.76c0,2.16-1.76,3.92-3.93,3.93h0Z"/>
  <g>
    <path class="cls-5" d="M237.28,106.7c-2.33,0-5.44-.19-7.86-.29v23.59c0,1.07-.87,1.94-1.94,1.94h-12.52c-1.07,0-1.94-.78-1.94-1.84V64.87c0-3.3,1.36-4.17,4.37-4.66,4.95-.78,12.72-1.26,19.7-1.26,14.66,0,29.12,5.14,29.12,23.39v.87c0,18.15-14.46,23.49-28.92,23.49Zm12.42-24.36c0-6.89-4.27-9.61-12.42-9.61-1.36,0-6.7,.19-7.86,.29v19.8c1.07,.1,6.79,.19,7.86,.19,8.64,0,12.42-3.2,12.42-9.8v-.87Z"/>
    <path class="cls-5" d="M330.46,131.94h-14.85c-1.07,0-1.46-.97-1.94-1.94l-13.01-24.56-1.07,.1c-2.04,0-5.05-.19-6.89-.19v24.65c0,1.07-.87,1.94-1.94,1.94h-12.62c-1.07,0-1.94-.87-1.94-1.94V64.87c0-3.3,1.36-4.17,4.37-4.66,4.46-.68,12.72-1.26,19.7-1.26,16.5,0,29.22,5.53,29.22,22.71v1.26c0,10.29-5.44,16.6-12.52,19.41l14.66,27.37c.19,.39,.29,.78,.29,1.07,0,.68-.39,1.16-1.46,1.16Zm-17.47-50.28c0-5.92-4.56-8.64-12.72-8.64-1.36,0-6.41,.19-7.57,.29v18.64c1.07,.1,5.82,.19,6.89,.19,10.19,0,13.39-2.62,13.39-9.22v-1.26Z"/>
    <path class="cls-5" d="M361.91,132.81c-7.67,0-13.39-.87-18.35-2.14-.97-.29-1.94-.87-1.94-1.94v-9.51c0-1.36,.78-1.84,1.75-1.84h.29c3.98,.39,14.66,1.17,18.44,1.17,6.7,0,8.64-2.14,8.64-6.79,0-2.82-1.36-4.37-6.41-7.38l-13.39-7.96c-9.03-5.34-11.45-11.45-11.45-18.54,0-10.68,6.02-18.93,24.85-18.93,7.09,0,16.89,1.16,20.58,2.14,.78,.19,1.46,.68,1.46,1.75v9.8c0,.87-.39,1.65-1.65,1.65h-.19c-2.72-.19-13.98-1.07-20.58-1.07-5.53,0-7.57,1.65-7.57,5.14,0,2.72,1.26,3.98,6.5,6.79l12.42,6.7c10.09,5.44,13.1,11.84,13.1,19.7,0,10.29-6.79,21.26-26.5,21.26Z"/>
    <path class="cls-5" d="M423.54,106.7c-2.33,0-5.44-.19-7.86-.29v23.59c0,1.07-.87,1.94-1.94,1.94h-12.52c-1.07,0-1.94-.78-1.94-1.84V64.87c0-3.3,1.36-4.17,4.37-4.66,4.95-.78,12.72-1.26,19.7-1.26,14.66,0,29.12,5.14,29.12,23.39v.87c0,18.15-14.46,23.49-28.92,23.49Zm12.42-24.36c0-6.89-4.27-9.61-12.42-9.61-1.36,0-6.7,.19-7.86,.29v19.8c1.07,.1,6.79,.19,7.86,.19,8.64,0,12.42-3.2,12.42-9.8v-.87Z"/>
  </g>
  <path class="cls-4" d="M149.65,152.83c-5.61,1.91-11.62,2.95-17.88,2.95-30.62,0-55.44-24.82-55.44-55.44s24.82-55.44,55.44-55.44c6.26,0,12.27,1.04,17.88,2.95V23.95l-5.47,8.68c-.74-.09-1.48-.18-2.24-.25-2.19-.19-4.34-.27-6.49-.25l-6.42-13.27c-6.63,.57-13.08,1.93-19.22,4.02l-.58,14.72c-2.7,1.16-5.3,2.48-7.8,3.96l-12.21-8.28c-5.38,3.77-10.29,8.16-14.63,13.09l6.86,13.04c-1.75,2.32-3.35,4.77-4.79,7.33l-14.73-1.07c-2.74,5.85-4.8,12.1-6.1,18.65l12.47,7.88c-.09,.75-.19,1.49-.24,2.24-.19,2.17-.27,4.34-.26,6.49l-13.26,6.42c.56,6.64,1.91,13.09,4,19.23l14.72,.57c1.17,2.69,2.49,5.29,3.96,7.8l-8.27,12.21c3.76,5.38,8.15,10.29,13.08,14.63l13.04-6.86c2.33,1.74,4.78,3.34,7.32,4.79l-1.06,14.74c5.86,2.74,12.1,4.79,18.66,6.1l7.88-12.5c.73,.09,1.47,.2,2.22,.26,2.18,.19,4.35,.26,6.49,.25l6.44,13.26c2.24-.19,4.44-.48,6.63-.84v-28.16Z"/>
  <rect class="cls-5" x="154.7" y="153.29" width="286.29" height="2.46"/>
  <rect class="cls-5" x="154.7" y="159.85" width="286.29" height="2.46"/>
  <rect class="cls-5" x="154.7" y="166.41" width="286.29" height="2.46"/>
  <rect class="cls-5" x="154.7" y="172.97" width="286.29" height="2.46"/>
  <rect class="cls-5" x="154.7" y="179.54" width="286.29" height="2.46"/>
</svg>